<svg width="32" height="32" viewBox="0 0 32 32" fill="none" xmlns="http://www.w3.org/2000/svg">
<path d="M21.9475 20.7615C20.925 21.6673 19.6282 22.7934 17.284 22.7934H15.8625C14.1666 22.7934 12.6204 22.1814 11.5231 21.1042C10.4508 20.0271 9.85225 18.5582 9.85225 16.9669V15.0818C9.85225 13.4906 10.4508 12.0217 11.5231 10.9445C12.6204 9.84286 14.1666 9.25531 15.8625 9.25531H17.259C19.6033 9.25531 20.9001 10.3814 21.9226 11.2873C22.9949 12.2175 23.9176 13.0254 26.3866 13.0254C26.7606 13.0254 27.1347 13.0009 27.5088 12.9275V12.903C27.3592 12.5358 27.1846 12.1931 26.9851 11.8503L25.3391 9.03498C23.8179 6.46444 21.0248 4.87316 17.9822 4.87316H14.7153C11.6728 4.87316 8.87965 6.46444 7.35839 9.03498L5.71244 11.8503C4.19118 14.4209 4.19118 17.6034 5.71244 20.1739L7.35839 22.9893C8.87965 25.5598 11.6728 27.1511 14.7153 27.1511H18.0072C21.0497 27.1511 23.8428 25.5598 25.3641 22.9893L27.01 20.1739C27.2095 19.8312 27.3841 19.4885 27.5337 19.1213V19.0968C27.1597 19.0478 26.7856 18.9988 26.4115 18.9988C23.9426 19.0233 23.0199 19.8312 21.9475 20.7615Z" fill="#006BFF"/>
<path d="M17.284 10.9445H15.8625C13.2938 10.9445 11.598 12.7561 11.598 15.0574V16.9424C11.598 19.2682 13.2938 21.0553 15.8625 21.0553H17.259C21.0248 21.0553 20.7255 17.2852 26.4115 17.2852C26.9602 17.2852 27.4839 17.3341 28.0076 17.4321C28.1821 16.4773 28.1821 15.498 28.0076 14.5433C27.4839 14.6412 26.9352 14.6902 26.4115 14.6902C20.7255 14.7146 21.0248 10.9445 17.284 10.9445Z" fill="#006BFF"/>
<path d="M31.2746 18.8276C30.302 18.1421 29.2047 17.6525 28.0076 17.4566V17.4811C27.9079 18.0442 27.7582 18.5827 27.5337 19.0968C28.5064 19.2437 29.4291 19.611 30.2272 20.1985V20.223C27.858 27.7632 19.728 31.974 12.0469 29.6483C4.36579 27.3226 0.0763464 19.3417 2.44552 11.8015C4.81469 4.26124 12.9447 0.0504649 20.6258 2.37618C25.2145 3.77162 28.8057 7.29692 30.2272 11.8015V11.8259C29.4291 12.389 28.5064 12.7562 27.5338 12.9031C27.7582 13.4172 27.9079 13.9803 28.0076 14.5189L28.0076 14.5433C29.1797 14.3229 30.302 13.8579 31.2746 13.1724C32.1973 12.4869 32.0227 11.728 31.8731 11.2874C29.2296 2.84133 20.1021 -1.88355 11.4982 0.711459C2.89441 3.30647 -1.91874 12.2666 0.724751 20.7126C3.36825 29.1587 12.4958 33.8836 21.0996 31.2885C26.237 29.7217 30.277 25.7803 31.8731 20.7126C32.0227 20.272 32.2222 19.5131 31.2746 18.8276Z" fill="#006BFF"/>
<path d="M27.5338 12.9031C27.1597 12.9521 26.7856 13.001 26.4115 13.001C23.9426 13.001 23.0198 12.1931 21.9475 11.2628C20.9001 10.357 19.6282 9.23084 17.284 9.23084H15.8625C14.1666 9.23084 12.6204 9.84287 11.5231 10.92C10.4508 11.9972 9.85225 13.4661 9.85225 15.0574V16.9424C9.85225 18.5337 10.4508 20.0026 11.5231 21.0798C12.6204 22.1814 14.1666 22.769 15.8625 22.769H17.259C19.6033 22.769 20.9001 21.6428 21.9225 20.737C22.9949 19.8067 23.9176 18.9989 26.3866 18.9989C26.7606 18.9989 27.1347 19.0233 27.5088 19.0968C27.7332 18.5827 27.8829 18.0196 27.9826 17.481V17.4565C27.4589 17.3586 26.9103 17.3097 26.3866 17.3097C20.7006 17.3097 20.9998 21.0798 17.2341 21.0798H15.8625C13.2938 21.0798 11.598 19.2682 11.598 16.9424V15.0574C11.598 12.7317 13.2938 10.9445 15.8625 10.9445H17.259C21.0248 10.9445 20.7255 14.7146 26.4115 14.7146C26.9602 14.7146 27.4839 14.6657 28.0076 14.5677V14.5433C27.9078 13.9802 27.7582 13.4417 27.5338 12.9031Z" fill="#0AE8F0"/>
<path d="M27.5338 12.9031C27.1597 12.9521 26.7856 13.001 26.4115 13.001C23.9426 13.001 23.0198 12.1931 21.9475 11.2628C20.9001 10.357 19.6282 9.23084 17.284 9.23084H15.8625C14.1666 9.23084 12.6204 9.84287 11.5231 10.92C10.4508 11.9972 9.85225 13.4661 9.85225 15.0574V16.9424C9.85225 18.5337 10.4508 20.0026 11.5231 21.0798C12.6204 22.1814 14.1666 22.769 15.8625 22.769H17.259C19.6033 22.769 20.9001 21.6428 21.9225 20.737C22.9949 19.8067 23.9176 18.9989 26.3866 18.9989C26.7606 18.9989 27.1347 19.0233 27.5088 19.0968C27.7332 18.5827 27.8829 18.0196 27.9826 17.481V17.4565C27.4589 17.3586 26.9103 17.3097 26.3866 17.3097C20.7006 17.3097 20.9998 21.0798 17.2341 21.0798H15.8625C13.2938 21.0798 11.598 19.2682 11.598 16.9424V15.0574C11.598 12.7317 13.2938 10.9445 15.8625 10.9445H17.259C21.0248 10.9445 20.7255 14.7146 26.4115 14.7146C26.9602 14.7146 27.4839 14.6657 28.0076 14.5677V14.5433C27.9078 13.9802 27.7582 13.4417 27.5338 12.9031Z" fill="#0AE8F0"/>
</svg>
