<?xml version="1.0" encoding="utf-8"?>
<!-- Generator: Adobe Illustrator 21.1.0, SVG Export Plug-In . SVG Version: 6.00 Build 0)  -->
<svg version="1.1" id="Слой_1" xmlns="http://www.w3.org/2000/svg" xmlns:xlink="http://www.w3.org/1999/xlink" x="0px" y="0px"
	 width="24px" height="19.8px" viewBox="0 0 24 19.8" style="enable-background:new 0 0 24 19.8;" xml:space="preserve">
<style type="text/css">
	.st0{fill:#FFFFFF;}
</style>
<title>Google Meet</title>
<g>
	<rect x="0" y="6" class="st0" width="5.5" height="7.7"/>
	<path class="st0" d="M24,16V3c0-0.5-0.4-0.8-0.8-0.8c0,0,0,0,0,0l0,0c-0.8,0.3-1.4,1-2,1.5c-2.5,2-5,4.1-7.5,6.2
		c3,2.6,6,5.2,9.1,7.8C23.9,18.3,24.1,16.8,24,16z"/>
	<path class="st0" d="M0.1,18.4c0.2,0.9,1.2,1.4,2,1.3h3.5v-5.6H0C0.1,15.6,0,17,0.1,18.4z"/>
	<polygon class="st0" points="5.5,0 0,5.6 5.5,5.6 	"/>
	<path class="st0" d="M19.1,15.2l-5.5-4.7v3.6H6v5.6c3.9,0,7.7,0,11.6,0c1-0.1,1.6-1.1,1.5-2.1V15.2z"/>
	<path class="st0" d="M13.5,9.3L19,4.8c0-1.2,0-2.3,0-3.5c-0.1-1.1-1.3-1.5-2.2-1.4H5.9v5.6h7.6V9.3z"/>
</g>
</svg>
