<?xml version="1.0" encoding="utf-8"?>
<!-- Generator: Adobe Illustrator 21.1.0, SVG Export Plug-In . SVG Version: 6.00 Build 0)  -->
<svg version="1.1" id="Слой_1" xmlns="http://www.w3.org/2000/svg" xmlns:xlink="http://www.w3.org/1999/xlink" x="0px" y="0px"
	 width="360px" height="300px" viewBox="0 0 360 300" style="enable-background:new 0 0 360 300;" xml:space="preserve">
<style type="text/css">
	.st0{fill:#EA4335;}
	.st1{fill:#FFBA00;}
	.st2{fill:#00AC47;}
	.st3{fill:#00832D;}
	.st4{fill:#0066DA;}
	.st5{fill:#2684FC;}
</style>
<g>
	<path class="st0" d="M90,0v90H0"/>
	<path class="st1" d="M90,0v90h120v62l90-73V30c0-20-10-30-30-30"/>
	<path class="st2" d="M88,300v-90h122v-60l90,71v49c0,20-10,30-30,30"/>
	<path class="st3" d="M210,150l90-73v146"/>
	<path class="st2" d="M300,77l42-34c9-7,18-7,18,7v200c0,14-9,14-18,7l-42-34"/>
	<path class="st4" d="M0,208v62c0,20,10,30,30,30h60v-92"/>
	<path class="st5" d="M0,90h90v120H0"/>
</g>
</svg>
