<svg width="24" height="24" viewBox="0 0 24 24" fill="none" xmlns="http://www.w3.org/2000/svg">
<path d="M0 1.71921C0 0.769972 0.794024 -3.68475e-07 1.77355 -3.68475e-07H22.2264C23.2059 -3.68475e-07 24 0.769972 24 1.71921V22.2808C24 23.2303 23.2059 24 22.2264 24H1.77355C0.794024 24 0 23.2303 0 22.2808V1.71921Z" fill="#006699"/>
<path fill-rule="evenodd" clip-rule="evenodd" d="M7.27677 20.0859V9.24859H3.65179V20.0859H7.27677ZM5.46426 7.76894C6.72837 7.76894 7.51517 6.93675 7.51517 5.89676C7.49161 4.83336 6.72837 4.02426 5.48825 4.02426C4.24825 4.02426 3.4375 4.83336 3.4375 5.89676C3.4375 6.93675 4.22413 7.76894 5.44064 7.76894H5.46426Z" fill="white"/>
<path fill-rule="evenodd" clip-rule="evenodd" d="M9.28125 20.0859H12.9062V14.0339C12.9062 13.71 12.9298 13.3864 13.0255 13.1549C13.2875 12.5078 13.884 11.8375 14.8854 11.8375C16.1971 11.8375 16.7218 12.8313 16.7218 14.2882V20.0859H20.3465V13.872C20.3465 10.5432 18.5581 8.99429 16.1732 8.99429C14.2176 8.99429 13.3591 10.0805 12.8821 10.8203H12.9063V9.24859H9.28135C9.32892 10.2655 9.28125 20.0859 9.28125 20.0859Z" fill="white"/>
</svg>
