<svg width="32" height="32" viewBox="0 0 32 32" fill="none" xmlns="http://www.w3.org/2000/svg">
<g clip-path="url(#clip0_147_33)">
<path d="M32 0H0V32H32V0Z" fill="#1BD741"/>
<path d="M4.80908 27.2027L6.37633 21.6359C5.36871 19.9233 4.83787 17.9754 4.83787 15.9736C4.83787 9.81132 9.85137 4.79712 16.0143 4.79712C22.1773 4.79712 27.1908 9.81062 27.1908 15.9736C27.1908 22.1365 22.1773 27.15 16.0143 27.15C14.0939 27.15 12.2142 26.6585 10.5507 25.7253L4.80978 27.2034L4.80908 27.2027ZM10.8442 23.6918L11.1862 23.9011C12.6362 24.7865 14.3059 25.2541 16.0143 25.2541C21.1317 25.2541 25.2949 21.091 25.2949 15.9736C25.2949 10.8561 21.1317 6.69298 16.0143 6.69298C10.8969 6.69298 6.73373 10.8561 6.73373 15.9736C6.73373 17.7564 7.2407 19.4879 8.19916 20.9807L8.42947 21.3395L7.52648 24.5457L10.8435 23.6918H10.8442Z" fill="white"/>
<path d="M12.875 10.7719L12.1497 10.7326C11.9222 10.7199 11.6982 10.7964 11.5262 10.946C11.1744 11.2515 10.6126 11.8413 10.4399 12.6109C10.1822 13.7575 10.5803 15.1618 11.6104 16.5662C12.6405 17.9705 14.5595 20.2175 17.9531 21.1773C19.0471 21.4863 19.9073 21.2777 20.5708 20.8536C21.0967 20.5173 21.4591 19.9773 21.5897 19.3671L21.7055 18.8265C21.742 18.6544 21.655 18.4803 21.4956 18.4066L19.045 17.2768C18.8856 17.2038 18.6974 17.2501 18.59 17.3884L17.628 18.6355C17.555 18.7296 17.4307 18.7668 17.3184 18.7275C16.6597 18.4957 14.4521 17.5717 13.2409 15.2384C13.1882 15.1373 13.2015 15.0144 13.276 14.928L14.1958 13.8642C14.2899 13.7554 14.3138 13.603 14.2569 13.471L13.2001 10.9994C13.144 10.8681 13.0176 10.7796 12.875 10.7719Z" fill="white"/>
</g>
<defs>
<clipPath id="clip0_147_33">
<rect width="32" height="32" rx="8" fill="white"/>
</clipPath>
</defs>
</svg>
