<?xml version="1.0" encoding="utf-8"?>
<!-- Generator: Adobe Illustrator 21.1.0, SVG Export Plug-In . SVG Version: 6.00 Build 0)  -->
<svg version="1.1" id="Слой_1" xmlns="http://www.w3.org/2000/svg" xmlns:xlink="http://www.w3.org/1999/xlink" x="0px" y="0px"
	 width="750px" height="400px" viewBox="0 0 750 400" style="enable-background:new 0 0 750 400;" xml:space="preserve">
<style type="text/css">
	.st0{fill:#FFDF53;}
</style>
<path class="st0" d="M353.7,150.3c0.9,0,1.7-0.7,1.7-1.7c0-0.9-0.7-1.7-1.7-1.7c-0.9,0-1.7,0.7-1.7,1.7S352.7,150.3,353.7,150.3z"/>
<path class="st0" d="M190,170.3c-0.9-0.1-1.7,0.6-1.8,1.5s0.6,1.7,1.5,1.8s1.7-0.6,1.8-1.5C191.5,171.3,190.9,170.4,190,170.3z"/>
<path class="st0" d="M385.7,142.2c0.9,0,1.7-0.7,1.7-1.7c0-0.9-0.7-1.7-1.7-1.7c-0.9,0-1.7,0.7-1.7,1.7
	C384.1,141.4,384.8,142.2,385.7,142.2z"/>
<path class="st0" d="M374.5,154.6c0.9,0,1.7-0.7,1.7-1.7c0-0.9-0.7-1.7-1.7-1.7c-0.9,0-1.7,0.7-1.7,1.7
	C372.8,153.9,373.6,154.6,374.5,154.6z"/>
<path class="st0" d="M370.7,137.3c0.9,0,1.7-0.7,1.7-1.7c0-0.9-0.7-1.7-1.7-1.7c-0.9,0-1.7,0.7-1.7,1.7S369.7,137.3,370.7,137.3z"/>
<path class="st0" d="M342.7,130.3c0.9,0,1.7-0.7,1.7-1.7c0-0.9-0.7-1.7-1.7-1.7c-0.9,0-1.7,0.7-1.7,1.7S341.7,130.3,342.7,130.3z"/>
<path class="st0" d="M99.7,182.3c0.9,0,1.7-0.7,1.7-1.7c0-0.9-0.7-1.7-1.7-1.7c-0.9,0-1.7,0.7-1.7,1.7S98.7,182.3,99.7,182.3z"/>
<path class="st0" d="M407.3,136.1c-3,3-3,7.8,0,10.7l4.9,4.9c0.2,0.2,0.6,0.2,0.9,0l4.9-4.9c3-3,3-7.8,0-10.7
	C415.1,133.2,410.3,133.2,407.3,136.1z"/>
<path class="st0" d="M378.5,173.6c0.9,0,1.7-0.7,1.7-1.7c0-0.9-0.7-1.7-1.7-1.7c-0.9,0-1.7,0.7-1.7,1.7
	C376.8,172.9,377.6,173.6,378.5,173.6z"/>
<path class="st0" d="M208,153.3c-0.9-0.1-1.7,0.6-1.8,1.5s0.6,1.7,1.5,1.8s1.7-0.6,1.8-1.5C209.5,154.3,208.9,153.4,208,153.3z"/>
</svg>
