<svg width="750" height="400" viewBox="0 0 750 400" fill="none" xmlns="http://www.w3.org/2000/svg">
<path d="M353.665 150.32C354.584 150.32 355.329 149.577 355.329 148.66C355.329 147.743 354.584 147 353.665 147C352.745 147 352 147.743 352 148.66C352 149.577 352.745 150.32 353.665 150.32Z" fill="#FFDF53"/>
<path d="M196.79 166.66C197.709 166.66 198.454 165.917 198.454 165C198.454 164.083 197.709 163.34 196.79 163.34C195.87 163.34 195.125 164.083 195.125 165C195.125 165.917 195.87 166.66 196.79 166.66Z" fill="#FFDF53"/>
<path d="M385.727 142.176C386.646 142.176 387.392 141.432 387.392 140.516C387.392 139.599 386.646 138.855 385.727 138.855C384.808 138.855 384.062 139.599 384.062 140.516C384.062 141.432 384.808 142.176 385.727 142.176Z" fill="#FFDF53"/>
<path d="M404.954 119.32C405.873 119.32 406.618 118.577 406.618 117.66C406.618 116.743 405.873 116 404.954 116C404.034 116 403.289 116.743 403.289 117.66C403.289 118.577 404.034 119.32 404.954 119.32Z" fill="#FFDF53"/>
<path d="M378.649 123.176C379.568 123.176 380.314 122.432 380.314 121.516C380.314 120.599 379.568 119.855 378.649 119.855C377.73 119.855 376.984 120.599 376.984 121.516C376.984 122.432 377.73 123.176 378.649 123.176Z" fill="#FFDF53"/>
<path d="M412.297 300.203C413.217 300.203 413.962 299.46 413.962 298.543C413.962 297.626 413.217 296.883 412.297 296.883C411.378 296.883 410.633 297.626 410.633 298.543C410.633 299.46 411.378 300.203 412.297 300.203Z" fill="#FFDF53"/>
<path d="M374.485 154.625C375.404 154.625 376.15 153.882 376.15 152.965C376.15 152.048 375.404 151.305 374.485 151.305C373.566 151.305 372.82 152.048 372.82 152.965C372.82 153.882 373.566 154.625 374.485 154.625Z" fill="#FFDF53"/>
<path d="M649.665 303.32C650.584 303.32 651.329 302.577 651.329 301.66C651.329 300.743 650.584 300 649.665 300C648.745 300 648 300.743 648 301.66C648 302.577 648.745 303.32 649.665 303.32Z" fill="#FFDF53"/>
<path d="M643.532 321.047C644.451 321.047 645.196 320.303 645.196 319.387C645.196 318.47 644.451 317.727 643.532 317.727C642.612 317.727 641.867 318.47 641.867 319.387C641.867 320.303 642.612 321.047 643.532 321.047Z" fill="#FFDF53"/>
<path d="M372.407 159.605C373.326 159.605 374.071 158.862 374.071 157.945C374.071 157.028 373.326 156.285 372.407 156.285C371.487 156.285 370.742 157.028 370.742 157.945C370.742 158.862 371.487 159.605 372.407 159.605Z" fill="#FFDF53"/>
<path d="M345.665 137.32C346.584 137.32 347.329 136.577 347.329 135.66C347.329 134.743 346.584 134 345.665 134C344.745 134 344 134.743 344 135.66C344 136.577 344.745 137.32 345.665 137.32Z" fill="#FFDF53"/>
<path d="M370.665 137.32C371.584 137.32 372.329 136.577 372.329 135.66C372.329 134.743 371.584 134 370.665 134C369.745 134 369 134.743 369 135.66C369 136.577 369.745 137.32 370.665 137.32Z" fill="#FFDF53"/>
<path d="M342.665 130.32C343.584 130.32 344.329 129.577 344.329 128.66C344.329 127.743 343.584 127 342.665 127C341.745 127 341 127.743 341 128.66C341 129.577 341.745 130.32 342.665 130.32Z" fill="#FFDF53"/>
<path d="M208.665 159.32C209.584 159.32 210.329 158.577 210.329 157.66C210.329 156.743 209.584 156 208.665 156C207.745 156 207 156.743 207 157.66C207 158.577 207.745 159.32 208.665 159.32Z" fill="#FFDF53"/>
<path d="M172.876 184.113C173.795 184.113 174.54 183.37 174.54 182.453C174.54 181.536 173.795 180.793 172.876 180.793C171.956 180.793 171.211 181.536 171.211 182.453C171.211 183.37 171.956 184.113 172.876 184.113Z" fill="#FFDF53"/>
<path d="M230.665 152.32C231.584 152.32 232.329 151.577 232.329 150.66C232.329 149.743 231.584 149 230.665 149C229.745 149 229 149.743 229 150.66C229 151.577 229.745 152.32 230.665 152.32Z" fill="#FFDF53"/>
<path d="M155.594 162.094C156.514 162.094 157.259 161.35 157.259 160.434C157.259 159.517 156.514 158.773 155.594 158.773C154.675 158.773 153.93 159.517 153.93 160.434C153.93 161.35 154.675 162.094 155.594 162.094Z" fill="#FFDF53"/>
<path d="M166.001 195.711C166.92 195.711 167.665 194.968 167.665 194.051C167.665 193.134 166.92 192.391 166.001 192.391C165.081 192.391 164.336 193.134 164.336 194.051C164.336 194.968 165.081 195.711 166.001 195.711Z" fill="#FFDF53"/>
<path d="M136.657 188.863C137.576 188.863 138.321 188.12 138.321 187.203C138.321 186.286 137.576 185.543 136.657 185.543C135.737 185.543 134.992 186.286 134.992 187.203C134.992 188.12 135.737 188.863 136.657 188.863Z" fill="#FFDF53"/>
<path d="M131.665 151.719C132.584 151.719 133.329 150.975 133.329 150.059C133.329 149.142 132.584 148.398 131.665 148.398C130.745 148.398 130 149.142 130 150.059C130 150.975 130.745 151.719 131.665 151.719Z" fill="#FFDF53"/>
<path fill-rule="evenodd" clip-rule="evenodd" d="M404.921 131.37C401.183 135.098 401.183 141.142 404.921 144.869L411.146 151.078C411.446 151.377 411.93 151.379 412.231 151.078L418.457 144.869C422.195 141.142 422.195 135.098 418.457 131.37C414.719 127.642 408.658 127.642 404.921 131.37Z" fill="#FFDF53" stroke="white" stroke-width="2"/>
</svg>
