<svg width="24" height="24" viewBox="0 0 24 24" fill="none" xmlns="http://www.w3.org/2000/svg">
<g clip-path="url(#clip0_1962_4201)">
<path d="M23.9991 4H0V19.9994H23.9991V4Z" fill="#F0F0F0"/>
<path d="M13.4995 4H10.4996V10.4997H0V13.4996H10.4996V19.9994H13.4995V13.4996H23.9991V10.4997H13.4995V4Z" fill="#D80027"/>
<path d="M18.457 14.7812L23.9981 17.8599V14.7812H18.457Z" fill="#0052B4"/>
<path d="M14.6094 14.7812L24.0003 19.9985V18.523L17.2649 14.7812H14.6094Z" fill="#0052B4"/>
<path d="M21.4991 19.9999L14.6094 16.1719V19.9999H21.4991Z" fill="#0052B4"/>
<path d="M14.6094 14.7812L24.0003 19.9985V18.523L17.2649 14.7812H14.6094Z" fill="#F0F0F0"/>
<path d="M14.6094 14.7812L24.0003 19.9985V18.523L17.2649 14.7812H14.6094Z" fill="#D80027"/>
<path d="M4.23421 14.7812L0 17.1337V14.7812H4.23421Z" fill="#0052B4"/>
<path d="M9.39124 15.4453V19.9989H1.19531L9.39124 15.4453Z" fill="#0052B4"/>
<path d="M6.73536 14.7812L0 18.523V19.9985L9.39088 14.7812H6.73536Z" fill="#D80027"/>
<path d="M5.54103 9.21925L0 6.14062V9.21925H5.54103Z" fill="#0052B4"/>
<path d="M9.39088 9.2173L0 4V5.47557L6.73536 9.21792H9.39088V9.2173Z" fill="#0052B4"/>
<path d="M2.5 4L9.38973 7.82798V4H2.5Z" fill="#0052B4"/>
<path d="M9.39088 9.2173L0 4V5.47557L6.73536 9.21792H9.39088V9.2173Z" fill="#F0F0F0"/>
<path d="M9.39088 9.2173L0 4V5.47557L6.73536 9.21792H9.39088V9.2173Z" fill="#D80027"/>
<path d="M19.7656 9.2196L23.9998 6.86719V9.2196H19.7656Z" fill="#0052B4"/>
<path d="M14.6094 8.5542V4H22.8053L14.6094 8.5542Z" fill="#0052B4"/>
<path d="M17.2649 9.2173L24.0003 5.47494V4L14.6094 9.2173H17.2649Z" fill="#D80027"/>
</g>
<defs>
<clipPath id="clip0_1962_4201">
<rect width="23.9991" height="16" fill="white" transform="translate(0 4)"/>
</clipPath>
</defs>
</svg>
