<svg width="24" height="24" viewBox="0 0 24 24" fill="none" xmlns="http://www.w3.org/2000/svg">
<mask id="mask0_1962_4202" style="mask-type:luminance" maskUnits="userSpaceOnUse" x="0" y="4" width="24" height="16">
<path d="M24 4H0V20H24V4Z" fill="white"/>
</mask>
<g mask="url(#mask0_1962_4202)">
<path d="M24 4H0V20H24V4Z" fill="#FCFCFC"/>
</g>
<path d="M16.5 10.9609H15.4613C15.4613 12.8728 13.9112 14.4222 12 14.4222C10.0888 14.4222 8.53875 12.8722 8.53875 10.9609H7.5C7.5 13.0203 8.88312 14.7566 10.7712 15.2909C10.5644 15.6841 10.5956 16.1791 10.8912 16.5484C11.28 16.2372 11.6819 15.9147 12.0231 15.6416C12.3644 15.9147 12.7662 16.2372 13.155 16.5484C13.4537 16.1759 13.4831 15.6747 13.2688 15.2797C15.1363 14.7316 16.5 13.0059 16.5 10.9616V10.9609Z" fill="#6DA544"/>
<path d="M9.23047 10.6191C9.23047 10.6191 9.23047 12.3497 10.9611 12.3497L11.3073 12.6959H11.9998C11.9998 12.6959 12.3461 11.6572 13.0386 11.6572C13.0386 11.6572 13.0386 10.9647 13.7305 10.9647H14.7692C14.7692 10.9647 14.423 9.58031 16.1536 8.54156L15.4611 8.19531C15.4611 8.19531 13.038 9.92594 11.3073 9.57969V10.2722H10.6155L10.2692 9.92594L9.23047 10.6178V10.6191Z" fill="#FFDA44"/>
</svg>
