<svg width="39" height="35" viewBox="0 0 39 35" fill="none" xmlns="http://www.w3.org/2000/svg">
<path d="M8.22645 17.5417C10.5653 17.703 12.501 18.5902 14.0334 20.2032C15.6464 21.8162 16.4529 23.7519 16.4529 26.0101C16.4529 28.4296 15.6464 30.4863 14.0334 32.1799C12.501 33.8736 10.525 34.7205 8.10547 34.7205C5.52463 34.7205 3.50834 33.8333 2.05661 32.059C0.685537 30.2846 0 27.9457 0 25.0423C0 13.993 5.24235 5.6456 15.727 0V5.8069C11.6138 8.79101 9.11362 12.7026 8.22645 17.5417ZM30.7282 17.5417C33.0671 17.703 35.0027 18.5902 36.5351 20.2032C38.1481 21.8162 38.9547 23.7519 38.9547 26.0101C38.9547 28.4296 38.1481 30.4863 36.5351 32.1799C35.0027 33.8736 33.0268 34.7205 30.6072 34.7205C28.0264 34.7205 26.0101 33.8333 24.5584 32.059C23.1873 30.2846 22.5018 27.9457 22.5018 25.0423C22.5018 13.993 27.7441 5.6456 38.2288 0V5.8069C34.1156 8.79101 31.6154 12.7026 30.7282 17.5417Z" fill="white"/>
</svg>
