<svg width="35" height="29" viewBox="0 0 35 29" fill="none" xmlns="http://www.w3.org/2000/svg">
<path d="M5.90709 23.7109C5.37727 23.412 4.95623 23.0058 4.64398 22.4924C4.33139 21.979 4.17509 21.4031 4.17509 20.7646V12.7709L0.886141 10.9514C0.58663 10.7716 0.364062 10.5598 0.218437 10.3158C0.0728129 10.0718 0 9.80086 0 9.50292C0 9.20499 0.0728129 8.93438 0.218437 8.69108C0.364062 8.44779 0.58663 8.23628 0.886141 8.05656L14.974 0.386591C15.224 0.247762 15.4822 0.148622 15.7486 0.0891727C16.0151 0.0297236 16.2884 0 16.5687 0C16.8489 0 17.1223 0.0297236 17.3887 0.0891727C17.6552 0.148622 17.9139 0.247417 18.1649 0.385559L34.1144 9.01633C34.4056 9.18815 34.6261 9.40379 34.7759 9.66323C34.9253 9.92268 35 10.2026 35 10.5029V21.6367C35 21.9288 34.901 22.1737 34.7031 22.3713C34.5048 22.5692 34.2591 22.6682 33.9662 22.6682C33.6729 22.6682 33.4276 22.5692 33.2303 22.3713C33.033 22.1737 32.9344 21.9288 32.9344 21.6367V10.6617L28.9623 12.7709V20.7646C28.9623 21.4031 28.806 21.979 28.4934 22.4924C28.1811 23.0058 27.7601 23.412 27.2303 23.7109L18.1736 28.6036C17.9168 28.749 17.6552 28.8514 17.3887 28.9108C17.1223 28.9703 16.8489 29 16.5687 29C16.2884 29 16.0151 28.9703 15.7486 28.9108C15.4822 28.8514 15.2205 28.749 14.9637 28.6036L5.90709 23.7109ZM16.092 16.8945C16.2773 17.0004 16.4427 17.0533 16.5883 17.0533C16.7343 17.0533 16.8999 17.0004 17.0851 16.8945L30.6783 9.50396L17.0851 2.15254C16.8999 2.04704 16.7343 1.99429 16.5883 1.99429C16.4427 1.99429 16.2773 2.04704 16.092 2.15254L2.45909 9.50396L16.092 16.8945ZM16.0523 26.8588C16.2375 26.9646 16.4096 27.0176 16.5687 27.0176C16.7277 27.0176 16.8999 26.9646 17.0851 26.8588L26.3007 21.8867C26.5128 21.7544 26.6651 21.6024 26.7578 21.4305C26.8504 21.2587 26.8967 21.0407 26.8967 20.7764V13.9049L18.1855 18.6512C17.9287 18.7966 17.6677 18.899 17.4027 18.9584C17.1379 19.0179 16.8599 19.0476 16.5687 19.0476C16.2774 19.0476 15.9994 19.0179 15.7347 18.9584C15.4696 18.899 15.2087 18.7966 14.9518 18.6512L6.24069 13.9049V20.7764C6.24069 20.9881 6.28699 21.1931 6.3796 21.3914C6.47221 21.5893 6.62454 21.7544 6.83661 21.8867L16.0523 26.8588Z" fill="#4D62C2"/>
</svg>
