<svg width="30" height="30" viewBox="0 0 30 30" fill="none" xmlns="http://www.w3.org/2000/svg">
<path d="M15.0051 29.25C13.0347 29.25 11.1821 28.8761 9.44725 28.1282C7.71271 27.3803 6.20379 26.3654 4.9205 25.0835C3.63721 23.8015 2.62137 22.2939 1.87298 20.5607C1.12433 18.8277 0.75 16.9759 0.75 15.0051C0.75 13.0347 1.12393 11.1821 1.87179 9.44725C2.61965 7.71271 3.63457 6.20379 4.91654 4.9205C6.19851 3.63721 7.70611 2.62137 9.43933 1.87298C11.1723 1.12433 13.0241 0.75 14.9949 0.75C16.9653 0.75 18.8179 1.12393 20.5528 1.87179C22.2873 2.61965 23.7962 3.63457 25.0795 4.91654C26.3628 6.19851 27.3786 7.70611 28.127 9.43933C28.8757 11.1723 29.25 13.0241 29.25 14.9949C29.25 16.9653 28.8761 18.8179 28.1282 20.5527C27.3803 22.2873 26.3654 23.7962 25.0835 25.0795C23.8015 26.3628 22.2939 27.3786 20.5607 28.127C18.8277 28.8757 16.9759 29.25 15.0051 29.25ZM15 27.6667C18.5361 27.6667 21.5312 26.4396 23.9854 23.9854C26.4396 21.5312 27.6667 18.5361 27.6667 15C27.6667 11.4639 26.4396 8.46875 23.9854 6.01458C21.5312 3.56042 18.5361 2.33333 15 2.33333C11.4639 2.33333 8.46875 3.56042 6.01458 6.01458C3.56042 8.46875 2.33333 11.4639 2.33333 15C2.33333 18.5361 3.56042 21.5312 6.01458 23.9854C8.46875 26.4396 11.4639 27.6667 15 27.6667ZM14.9604 25.4745C15.1676 25.4745 15.3487 25.3968 15.5039 25.2414C15.6593 25.0862 15.737 24.9051 15.737 24.6979V23.6169C16.8736 23.5216 17.9625 23.1137 19.0039 22.393C20.0454 21.6723 20.5662 20.5538 20.5662 19.0375C20.5662 17.9292 20.2292 16.9842 19.5553 16.2025C18.8813 15.4212 17.5943 14.6874 15.6943 14.0013C13.9484 13.3923 12.8329 12.8695 12.3479 12.433C11.8629 11.9968 11.6204 11.3747 11.6204 10.5667C11.6204 9.75864 11.9355 9.08572 12.5656 8.54792C13.1958 8.01011 14.0336 7.74121 15.0792 7.74121C15.7289 7.74121 16.2973 7.86906 16.7844 8.12477C17.2716 8.38048 17.6877 8.71746 18.0329 9.13573C18.1545 9.28984 18.3042 9.40094 18.4818 9.46902C18.6593 9.5371 18.83 9.53552 18.9936 9.46427C19.2165 9.37904 19.3689 9.2335 19.4508 9.02767C19.5326 8.82157 19.5085 8.63117 19.3787 8.45648C18.9565 7.86985 18.4302 7.39076 17.7997 7.01921C17.1696 6.64792 16.5084 6.43588 15.8162 6.3831V5.30208C15.8162 5.09493 15.7385 4.91377 15.5831 4.75861C15.4279 4.60317 15.2467 4.52546 15.0396 4.52546C14.8324 4.52546 14.6513 4.60317 14.4961 4.75861C14.3407 4.91377 14.263 5.09493 14.263 5.30208V6.3831C12.8828 6.61242 11.8385 7.12701 11.1299 7.92685C10.4214 8.7267 10.0671 9.60664 10.0671 10.5667C10.0671 11.7053 10.425 12.6168 11.1406 13.3011C11.8563 13.9851 13.0636 14.6346 14.7625 15.2498C16.4656 15.877 17.61 16.4433 18.1956 16.9487C18.7811 17.454 19.0739 18.1503 19.0739 19.0375C19.0739 20.1519 18.6675 20.9543 17.8547 21.4446C17.0417 21.9346 16.1693 22.1796 15.2375 22.1796C14.4194 22.1796 13.68 21.969 13.0192 21.5479C12.3585 21.1267 11.8029 20.5356 11.3524 19.7745C11.2426 19.5877 11.0873 19.4638 10.8865 19.4029C10.6854 19.3419 10.4958 19.3481 10.3177 19.4215C10.1258 19.4946 9.98545 19.6335 9.89652 19.8383C9.80733 20.0433 9.81142 20.2362 9.90879 20.417C10.3717 21.2939 10.9593 21.9804 11.6718 22.4765C12.3843 22.9729 13.2217 23.3266 14.1838 23.5377V24.6979C14.1838 24.9051 14.2615 25.0862 14.4169 25.2414C14.5721 25.3968 14.7533 25.4745 14.9604 25.4745Z" fill="#4D62C2"/>
</svg>
