<svg width="38" height="28" viewBox="0 0 38 28" fill="none" xmlns="http://www.w3.org/2000/svg">
<path d="M19 4.61737C20.0141 3.11412 21.1954 1.96875 22.5437 1.18125C23.8921 0.39375 25.3359 0 26.875 0C29.0602 0 30.9038 0.73252 32.4059 2.19756C33.908 3.6626 34.686 5.48771 34.7399 7.67287C34.7399 7.83008 34.7342 7.97591 34.7229 8.11037C34.7118 8.24512 34.695 8.39095 34.6726 8.54787C34.6793 8.79696 34.5991 9.00506 34.4319 9.17218C34.2648 9.33931 34.0567 9.42637 33.8076 9.43337C33.5585 9.44008 33.3504 9.35987 33.1833 9.19275C33.0162 9.02533 32.9293 8.81722 32.9226 8.56843C32.945 8.41122 32.9618 8.26539 32.9729 8.13093C32.9842 7.99618 32.9899 7.85035 32.9899 7.69343C32.9494 5.98368 32.3454 4.56575 31.1778 3.43962C30.01 2.31321 28.5757 1.75 26.875 1.75C25.596 1.75 24.4109 2.08089 23.3194 2.74269C22.228 3.40448 21.2224 4.41525 20.3024 5.775C20.1298 6.00396 19.925 6.18114 19.6882 6.30656C19.4516 6.43227 19.2077 6.49512 18.9562 6.49512C18.7048 6.49512 18.4681 6.43227 18.2462 6.30656C18.0239 6.18114 17.8298 6.00396 17.6639 5.775C16.744 4.41525 15.7438 3.40448 14.6635 2.74269C13.5835 2.08089 12.404 1.75 11.125 1.75C9.42429 1.75 7.99002 2.31321 6.82219 3.43962C5.65465 4.56575 5.0506 5.98368 5.01006 7.69343C5.01006 7.85035 5.01575 7.99618 5.02712 8.13093C5.03821 8.26539 5.05498 8.41122 5.07744 8.56843C5.07073 8.81722 4.98381 9.02533 4.81669 9.19275C4.64956 9.35987 4.44146 9.44008 4.19237 9.43337C3.94329 9.42637 3.73519 9.33931 3.56806 9.17218C3.40094 9.00506 3.32073 8.79696 3.32744 8.54787C3.30498 8.39095 3.28821 8.24512 3.27713 8.11037C3.26575 7.97591 3.26006 7.83008 3.26006 7.67287C3.31402 5.48771 4.09204 3.6626 5.59412 2.19756C7.09621 0.73252 8.93983 0 11.125 0C12.6641 0 14.1079 0.39375 15.4563 1.18125C16.8046 1.96875 17.9859 3.11412 19 4.61737ZM19 27.1959C18.6815 27.1959 18.3798 27.1285 18.0948 26.9937C17.8099 26.859 17.5406 26.6761 17.2872 26.4451C16.6388 25.8752 15.6645 24.9582 14.3643 23.6941C13.064 22.4297 11.9584 21.3679 11.0476 20.5087C10.8411 20.3022 10.7485 20.0907 10.7697 19.8743C10.7913 19.6579 10.8839 19.4677 11.0476 19.3038C11.2115 19.1402 11.4016 19.0476 11.6181 19.026C11.8345 19.0047 12.0459 19.094 12.2524 19.2937C13.1499 20.1845 14.1556 21.1521 15.2694 22.1966C16.3833 23.2407 17.6268 24.3877 19 25.6375C20.3732 24.3877 21.6167 23.2463 22.7306 22.2132C23.8444 21.1801 24.8501 20.2069 25.7476 19.2937C25.9541 19.0872 26.1655 18.998 26.3819 19.026C26.5984 19.0543 26.7885 19.1502 26.9524 19.3139C27.1161 19.4778 27.2069 19.6752 27.225 19.9062C27.2431 20.1372 27.1489 20.356 26.9424 20.5625C26.0315 21.415 24.9204 22.4662 23.6091 23.716C22.2974 24.9655 21.3432 25.8752 20.7465 26.4451C20.493 26.6986 20.2238 26.887 19.9389 27.0104C19.6539 27.134 19.341 27.1959 19 27.1959ZM17.3375 20.125C17.5148 20.125 17.6634 20.0718 17.7833 19.9653C17.9035 19.8586 17.9994 19.72 18.0712 19.5497L21.0059 10.7354L23.3448 14.2559C23.4906 14.4443 23.6611 14.5946 23.8562 14.7066C24.0514 14.8188 24.2723 14.875 24.5191 14.875H36.5C36.7491 14.875 36.9572 14.7914 37.1243 14.6243C37.2914 14.4572 37.375 14.2491 37.375 14C37.375 13.7509 37.2914 13.5428 37.1243 13.3757C36.9572 13.2086 36.7491 13.125 36.5 13.125H24.684L21.4636 8.29237C21.3781 8.16433 21.2642 8.06837 21.1219 8.0045C20.9795 7.94062 20.8264 7.90868 20.6625 7.90868C20.4852 7.90868 20.3309 7.96191 20.1996 8.06837C20.0684 8.17512 19.9781 8.31366 19.9288 8.484L16.9941 17.3215L14.5979 13.7441C14.452 13.5556 14.2816 13.4054 14.0864 13.2934C13.8913 13.1811 13.6704 13.125 13.4236 13.125H1.5C1.25092 13.125 1.04281 13.2086 0.875688 13.3757C0.708563 13.5428 0.625 13.7509 0.625 14C0.625 14.2491 0.708563 14.4572 0.875688 14.6243C1.04281 14.7914 1.25092 14.875 1.5 14.875H13.2486L16.5028 19.7413C16.5882 19.8915 16.7078 19.993 16.8615 20.0458C17.0149 20.0986 17.1736 20.125 17.3375 20.125Z" fill="#4D62C2"/>
</svg>
