<svg width="32" height="32" viewBox="0 0 32 32" fill="none" xmlns="http://www.w3.org/2000/svg">
<path d="M19.4191 29.8061C19.5231 29.8478 19.6168 29.8687 19.7002 29.8687C19.7836 29.8687 19.8773 29.8478 19.9813 29.8061L29.4315 26.8937C29.4001 26.4 29.2526 26.0442 28.9891 25.8265C28.7253 25.6087 28.4268 25.4998 28.0937 25.4998H20.3839C19.6968 25.4998 19.0742 25.4728 18.516 25.4186C17.9575 25.3644 17.3855 25.2354 16.8 25.0314L14.0159 24.1344C13.7936 24.0616 13.6338 23.9157 13.5366 23.6969C13.4393 23.4781 13.4271 23.2614 13.5 23.0469C13.5731 22.8324 13.7122 22.6756 13.9172 22.5765C14.1225 22.4776 14.3377 22.4646 14.5627 22.5375L17.0815 23.4499C17.6045 23.627 18.1831 23.7406 18.8174 23.7907C19.4517 23.8406 20.2364 23.8686 21.1716 23.8748H21.5937C21.5937 23.3687 21.5006 22.9593 21.3142 22.6467C21.1279 22.3342 20.8607 22.1166 20.5127 21.9939L11.1628 18.5623C11.1003 18.5417 11.0429 18.5262 10.9906 18.5156C10.9386 18.5053 10.8813 18.5002 10.8187 18.5002H7.40625V26.3123L19.4191 29.8061ZM19.0035 31.4124L7.40625 28.0186C7.25215 28.6605 6.92457 29.1719 6.42353 29.553C5.92249 29.9343 5.37513 30.125 4.78147 30.125H3.53144C2.80967 30.125 2.19162 29.868 1.67731 29.3539C1.16327 28.8399 0.90625 28.2219 0.90625 27.4998V19.4999C0.90625 18.7782 1.16327 18.1603 1.67731 17.6462C2.19162 17.1322 2.80967 16.8752 3.53144 16.8752H10.783C10.9341 16.8752 11.0899 16.8922 11.2502 16.9263C11.4105 16.9607 11.5595 17.001 11.6971 17.047L21.0875 20.4875C21.6687 20.7083 22.1692 21.1052 22.589 21.6782C23.0088 22.2511 23.2187 22.9833 23.2187 23.8748H28.0937C29.073 23.8748 29.8231 24.1812 30.3439 24.7938C30.8647 25.4061 31.1252 26.1832 31.1252 27.1248C31.1252 27.4498 31.0371 27.7243 30.8611 27.9483C30.685 28.1723 30.4283 28.3406 30.0908 28.4533L20.5281 31.4031C20.2928 31.4697 20.0439 31.5083 19.7814 31.5188C19.519 31.5291 19.2597 31.4937 19.0035 31.4124ZM2.53125 27.4998C2.53125 27.7915 2.62509 28.0312 2.81278 28.2189C3.0002 28.4063 3.23975 28.5 3.53144 28.5H4.78147C5.07316 28.5 5.31271 28.4219 5.50012 28.2656C5.68754 28.1093 5.78125 27.8541 5.78125 27.4998V18.5002H3.53144C3.23975 18.5002 3.0002 18.5939 2.81278 18.7813C2.62509 18.9687 2.53125 19.2082 2.53125 19.4999V27.4998ZM22.4997 15.1063C22.1771 15.1063 21.8599 15.0474 21.5482 14.9296C21.2365 14.8121 20.9517 14.6355 20.6939 14.3999L16.3815 10.2626C15.6668 9.57498 15.0704 8.80581 14.5924 7.95513C14.1141 7.10417 13.875 6.17751 13.875 5.17515C13.875 3.98051 14.2931 2.96516 15.1295 2.12909C15.9655 1.29303 16.9807 0.875 18.1751 0.875C19.0626 0.875 19.87 1.11509 20.5972 1.59528C21.3241 2.07547 21.9584 2.6583 22.5001 3.34378C23.0417 2.6583 23.6762 2.07547 24.4033 1.59528C25.1303 1.11509 25.9375 0.875 26.825 0.875C28.0196 0.875 29.035 1.29303 29.8711 2.12909C30.7071 2.96516 31.1252 3.98051 31.1252 5.17515C31.1252 6.17751 30.8876 7.10417 30.4126 7.95513C29.9376 8.80581 29.3428 9.57498 28.6283 10.2626L24.3062 14.3999C24.0481 14.6355 23.7632 14.8121 23.4515 14.9296C23.1395 15.0474 22.8222 15.1063 22.4997 15.1063ZM23.1878 13.2311L27.3657 9.22831C27.9429 8.67202 28.4428 8.05587 28.8656 7.37987C29.2886 6.7036 29.5002 5.9687 29.5002 5.17515C29.5002 4.43334 29.2397 3.80203 28.7189 3.28122C28.1981 2.76041 27.5668 2.5 26.825 2.5C26.175 2.5 25.5923 2.69432 25.0769 3.08297C24.5612 3.47134 24.0981 3.92905 23.6875 4.45609L23.4157 4.78434C23.1807 5.08009 22.8772 5.22797 22.5053 5.22797C22.1332 5.22797 21.8262 5.08009 21.5844 4.78434L21.3126 4.45609C20.9023 3.92905 20.4393 3.47134 19.9236 3.08297C19.408 2.69432 18.8251 2.5 18.1751 2.5C17.4336 2.5 16.8024 2.76041 16.2816 3.28122C15.7605 3.80203 15.5 4.43334 15.5 5.17515C15.5 5.9687 15.7115 6.7036 16.1345 7.37987C16.5576 8.05587 17.0575 8.67202 17.6344 9.22831L21.8127 13.2311C22.0001 13.4188 22.2292 13.5126 22.5001 13.5126C22.7709 13.5126 23.0002 13.4188 23.1878 13.2311Z" fill="#4D62C2"/>
</svg>
