<svg width="32" height="32" viewBox="0 0 32 32" fill="none" xmlns="http://www.w3.org/2000/svg">
<path d="M11.2818 22.1922C8.21768 22.1922 5.62092 21.1277 3.4915 18.9986C1.3624 16.8692 0.297852 14.2724 0.297852 11.2083C0.297852 8.14419 1.3624 5.54742 3.4915 3.41801C5.62092 1.28891 8.21768 0.224365 11.2818 0.224365C14.3459 0.224365 16.9427 1.28891 19.0721 3.41801C21.2012 5.54742 22.2657 8.14419 22.2657 11.2083C22.2657 12.5401 22.0298 13.8289 21.558 15.0747C21.0862 16.3205 20.4669 17.3857 19.7003 18.2703L31.0235 29.5934C31.2027 29.773 31.2985 29.9929 31.311 30.2532C31.3231 30.5139 31.2273 30.7462 31.0235 30.95C30.8193 31.1538 30.5932 31.2557 30.345 31.2557C30.0971 31.2557 29.8711 31.1538 29.667 30.95L18.3438 19.6268C17.3854 20.4426 16.2833 21.0742 15.0375 21.5214C13.7917 21.9686 12.5398 22.1922 11.2818 22.1922ZM11.2818 20.2756C13.8249 20.2756 15.9719 19.4001 17.7228 17.6493C19.4736 15.8987 20.3491 13.7517 20.3491 11.2083C20.3491 8.66488 19.4736 6.5179 17.7228 4.76734C15.9719 3.01647 13.8249 2.14103 11.2818 2.14103C8.73838 2.14103 6.59139 3.01647 4.84083 4.76734C3.08996 6.5179 2.21452 8.66488 2.21452 11.2083C2.21452 13.7517 3.08996 15.8987 4.84083 17.6493C6.59139 19.4001 8.73838 20.2756 11.2818 20.2756Z" fill="#4D62C2"/>
</svg>
