<?xml version="1.0" encoding="utf-8"?>
<!-- Generator: Adobe Illustrator 21.1.0, SVG Export Plug-In . SVG Version: 6.00 Build 0)  -->
<svg version="1.1" id="Слой_1" xmlns="http://www.w3.org/2000/svg" xmlns:xlink="http://www.w3.org/1999/xlink" x="0px" y="0px"
	 width="48px" height="48px" viewBox="0 0 48 48" style="enable-background:new 0 0 48 48;" xml:space="preserve">
<style type="text/css">
	.st0{fill:#FFFFFF;}
</style>
<path class="st0" d="M23.7,37.6h1.2c0.8,0,1.6-0.4,2.1-1.1l7.5-9.8l7.5,9.8c0.5,0.7,1.3,1.1,2.1,1.1h1.2L35.8,25l9.1-12h-1.2
	c-0.8,0-1.6,0.4-2.1,1.1l-7.1,9.3l-7.1-9.3c-0.5-0.7-1.3-1.1-2.1-1.1h-1.2l9.1,12L23.7,37.6z"/>
<path class="st0" d="M24,26v-3c0-6.7-5.9-12-12.8-10.9C5.8,13,2,17.9,2,23.3V24v2v0.1C2,32.7,6.8,37.9,12.9,38
	c5.1,0.1,9.4-3.3,10.7-8h-1c-0.6,0-1.2,0.4-1.5,0.9c-1.7,3.6-5.8,5.9-10.2,4.8C6.8,34.8,4,31,4,26.8V26H24z M4,23.7
	c0-4.7,2.8-8.6,6.9-9.5C16.8,12.9,22,17.4,22,23v1H4V23.7z"/>
</svg>
