<svg width="27" height="27" viewBox="0 0 27 27" fill="none" xmlns="http://www.w3.org/2000/svg">
<g clip-path="url(#clip0_89_2624)">
<path d="M0.789917 13.241V26.0699H26.4477V0.412048H0.789917V13.241Z" fill="#007ACC"/>
<path d="M6.46356 13.325L6.45544 14.3756H9.79497V23.865H12.1571V14.3756H15.4967V13.3453C15.4967 12.775 15.4845 12.2986 15.4683 12.2863C15.456 12.2701 13.4236 12.2619 10.9598 12.266L6.47569 12.2782L6.46356 13.3249V13.325ZM21.4929 12.2484C22.1445 12.4112 22.6414 12.7004 23.0975 13.1728C23.3338 13.4254 23.684 13.8855 23.7125 13.9955C23.7205 14.0281 22.6047 14.7775 21.9287 15.197C21.9043 15.2132 21.8064 15.1074 21.6965 14.9444C21.3666 14.4638 21.0205 14.2562 20.491 14.2195C19.7132 14.1666 19.2122 14.5738 19.2163 15.2539C19.2163 15.4536 19.2448 15.5716 19.3262 15.7345C19.4973 16.0889 19.8149 16.3007 20.8128 16.7324C22.6495 17.5224 23.4355 18.0437 23.9243 18.785C24.47 19.6117 24.5922 20.9313 24.2216 21.9128C23.8144 22.9798 22.8044 23.7048 21.3829 23.945C20.9431 24.0224 19.9005 24.0102 19.4281 23.9247C18.3977 23.7415 17.4202 23.2323 16.8175 22.5644C16.5813 22.3038 16.121 21.6236 16.1496 21.5748C16.1618 21.5584 16.2677 21.4933 16.3857 21.424C16.4998 21.3589 16.9315 21.1104 17.3388 20.8743L18.0759 20.4466L18.2307 20.6747C18.4466 21.0045 18.9189 21.4566 19.2041 21.6073C20.0226 22.039 21.1467 21.978 21.7006 21.4811C21.9368 21.2653 22.0345 21.0413 22.0345 20.7113C22.0345 20.4141 21.9979 20.2838 21.8431 20.0598C21.6437 19.7746 21.2363 19.5344 20.0796 19.0334C18.7561 18.4632 18.1859 18.109 17.6646 17.5469C17.3632 17.2212 17.0781 16.6998 16.96 16.264C16.8623 15.9015 16.8377 14.9933 16.9152 14.6268C17.1881 13.3479 18.1533 12.456 19.5461 12.1913C19.9982 12.1058 21.0489 12.1384 21.4929 12.2484Z" fill="white"/>
</g>
<defs>
<clipPath id="clip0_89_2624">
<rect width="25.6578" height="25.6578" fill="white" transform="translate(0.789917 0.412048)"/>
</clipPath>
</defs>
</svg>
